<mxfile host="app.diagrams.net" agent="Mozilla/5.0 (X11; Linux x86_64) AppleWebKit/537.36 (KHTML, like Gecko) Chrome/128.0.0.0 Safari/537.36" version="24.7.16">
  <diagram name="Страница — 1" id="FIlypT9NXCq33b7IDFKb">
    <mxGraphModel dx="634" dy="642" grid="1" gridSize="10" guides="1" tooltips="1" connect="1" arrows="1" fold="1" page="1" pageScale="1" pageWidth="827" pageHeight="1169" math="0" shadow="0">
      <root>
        <mxCell id="0" />
        <mxCell id="1" parent="0" />
        <mxCell id="-fS4lJECkJdT4lTp00I2-3" style="edgeStyle=orthogonalEdgeStyle;rounded=0;orthogonalLoop=1;jettySize=auto;html=1;exitX=0.5;exitY=1;exitDx=0;exitDy=0;entryX=0.5;entryY=0;entryDx=0;entryDy=0;endArrow=none;endFill=0;" edge="1" parent="1" source="-fS4lJECkJdT4lTp00I2-1" target="-fS4lJECkJdT4lTp00I2-2">
          <mxGeometry relative="1" as="geometry" />
        </mxCell>
        <mxCell id="-fS4lJECkJdT4lTp00I2-1" value="Начало" style="rounded=1;whiteSpace=wrap;html=1;arcSize=50;" vertex="1" parent="1">
          <mxGeometry x="50" y="40" width="140" height="60" as="geometry" />
        </mxCell>
        <mxCell id="-fS4lJECkJdT4lTp00I2-5" style="edgeStyle=orthogonalEdgeStyle;rounded=0;orthogonalLoop=1;jettySize=auto;html=1;exitX=0.5;exitY=1;exitDx=0;exitDy=0;entryX=0.5;entryY=0;entryDx=0;entryDy=0;endArrow=none;endFill=0;" edge="1" parent="1" source="-fS4lJECkJdT4lTp00I2-2" target="-fS4lJECkJdT4lTp00I2-4">
          <mxGeometry relative="1" as="geometry" />
        </mxCell>
        <mxCell id="-fS4lJECkJdT4lTp00I2-2" value="long double x, res, std_res;" style="rounded=0;whiteSpace=wrap;html=1;" vertex="1" parent="1">
          <mxGeometry x="50" y="120" width="140" height="60" as="geometry" />
        </mxCell>
        <mxCell id="-fS4lJECkJdT4lTp00I2-4" value="long int n;" style="rounded=0;whiteSpace=wrap;html=1;" vertex="1" parent="1">
          <mxGeometry x="50" y="200" width="140" height="60" as="geometry" />
        </mxCell>
        <mxCell id="-fS4lJECkJdT4lTp00I2-6" value="&lt;font style=&quot;font-size: 11px;&quot;&gt;check_ldouble(&amp;amp;x, &quot;Введите любое число: &quot;);&lt;/font&gt;" style="shape=process;whiteSpace=wrap;html=1;backgroundOutline=1;" vertex="1" parent="1">
          <mxGeometry x="50" y="280" width="140" height="60" as="geometry" />
        </mxCell>
        <mxCell id="-fS4lJECkJdT4lTp00I2-7" value="&lt;font style=&quot;font-size: 8px;&quot;&gt;check_lint(&amp;amp;n, &quot;Введите количество членов ряда (целое число от 1 до 10): &quot;, 0, 11);&lt;/font&gt;" style="shape=process;whiteSpace=wrap;html=1;backgroundOutline=1;" vertex="1" parent="1">
          <mxGeometry x="50" y="360" width="140" height="60" as="geometry" />
        </mxCell>
        <mxCell id="-fS4lJECkJdT4lTp00I2-8" value="res = my_sh(x, n);" style="shape=process;whiteSpace=wrap;html=1;backgroundOutline=1;" vertex="1" parent="1">
          <mxGeometry x="50" y="440" width="140" height="60" as="geometry" />
        </mxCell>
        <mxCell id="-fS4lJECkJdT4lTp00I2-9" value="isnan(res)" style="rhombus;whiteSpace=wrap;html=1;" vertex="1" parent="1">
          <mxGeometry x="50" y="520" width="140" height="60" as="geometry" />
        </mxCell>
        <mxCell id="-fS4lJECkJdT4lTp00I2-10" value="&lt;font style=&quot;font-size: 10px;&quot;&gt;printf(&quot;Ошибка: слишком большое количество элементов суммы\n&quot;);&lt;/font&gt;" style="rounded=0;whiteSpace=wrap;html=1;" vertex="1" parent="1">
          <mxGeometry x="230" y="520" width="140" height="60" as="geometry" />
        </mxCell>
        <mxCell id="-fS4lJECkJdT4lTp00I2-11" value="return 1;" style="rounded=1;whiteSpace=wrap;html=1;arcSize=50;" vertex="1" parent="1">
          <mxGeometry x="230" y="600" width="140" height="60" as="geometry" />
        </mxCell>
        <mxCell id="-fS4lJECkJdT4lTp00I2-12" value="std_res = sinhl(x);" style="shape=process;whiteSpace=wrap;html=1;backgroundOutline=1;" vertex="1" parent="1">
          <mxGeometry x="60" y="600" width="120" height="60" as="geometry" />
        </mxCell>
      </root>
    </mxGraphModel>
  </diagram>
</mxfile>
